<?xml version="1.0" standalone="no"?>
<!DOCTYPE svg PUBLIC "-//W3C//DTD SVG 20010904//EN"
 "http://www.w3.org/TR/2001/REC-SVG-20010904/DTD/svg10.dtd">
<svg version="1.0" xmlns="http://www.w3.org/2000/svg"
 width="128.000000pt" height="128.000000pt" viewBox="0 0 128.000000 128.000000"
 preserveAspectRatio="xMidYMid meet">

<g transform="translate(0.000000,128.000000) scale(0.100000,-0.100000)"
fill="#000000" stroke="none">
<path d="M779 1243 c-1 -10 -1 -22 0 -26 1 -4 -6 -10 -15 -14 -13 -5 -13 -7
-2 -14 10 -7 9 -9 -5 -9 -10 0 -16 -4 -13 -9 3 -5 -1 -11 -8 -14 -12 -5 -13
-12 -4 -35 13 -33 38 -38 39 -8 1 18 2 18 9 -4 5 -16 8 -19 9 -8 1 11 8 16 21
13 14 -3 20 2 20 15 0 10 4 21 9 25 8 5 -45 105 -55 105 -2 0 -5 -8 -5 -17z
m-19 -113 c0 -5 -4 -10 -10 -10 -5 0 -10 5 -10 10 0 6 5 10 10 10 6 0 10 -4
10 -10z"/>
<path d="M520 1187 c-64 -10 -75 -15 -78 -33 -2 -11 5 -27 15 -35 16 -13 17
-12 4 4 -11 13 -11 20 -1 32 13 16 59 10 73 -9 5 -8 9 -8 15 0 4 6 18 13 31
17 21 5 23 3 19 -24 -3 -16 -1 -29 3 -29 4 0 9 12 11 28 3 26 5 27 58 24 55
-2 55 -2 26 13 -41 22 -90 25 -176 12z"/>
<path d="M556 1125 c-3 -8 -1 -15 4 -15 6 0 10 7 10 15 0 8 -2 15 -4 15 -2 0
-6 -7 -10 -15z"/>
<path d="M646 1132 c-3 -5 -8 -29 -12 -53 -6 -34 -9 -39 -15 -24 -7 17 -8 18
-8 3 -1 -10 -5 -19 -11 -19 -5 -1 -14 -3 -20 -4 -5 -1 -15 -3 -21 -4 -5 0 -8
-5 -4 -10 3 -5 21 -7 41 -4 34 6 35 5 30 -23 -3 -16 -10 -30 -16 -32 -16 -6
-12 -20 8 -24 15 -3 18 10 28 97 11 100 11 114 0 97z"/>
<path d="M490 1120 c0 -5 5 -10 11 -10 5 0 7 5 4 10 -3 6 -8 10 -11 10 -2 0
-4 -4 -4 -10z"/>
<path d="M591 1064 c0 -11 3 -14 6 -6 3 7 2 16 -1 19 -3 4 -6 -2 -5 -13z"/>
<path d="M770 1065 c0 -8 5 -15 10 -15 6 0 10 7 10 15 0 8 -4 15 -10 15 -5 0
-10 -7 -10 -15z"/>
<path d="M806 1033 c-3 -27 -2 -61 2 -78 7 -23 9 -12 9 48 1 42 0 77 -2 77 -1
0 -5 -21 -9 -47z"/>
<path d="M770 1030 c0 -5 4 -10 9 -10 6 0 13 5 16 10 3 6 -1 10 -9 10 -9 0
-16 -4 -16 -10z"/>
<path d="M460 1020 c-13 -8 -12 -10 3 -10 9 0 17 5 17 10 0 12 -1 12 -20 0z"/>
<path d="M490 1020 c0 -5 9 -10 21 -10 11 0 17 5 14 10 -3 6 -13 10 -21 10 -8
0 -14 -4 -14 -10z"/>
<path d="M702 1004 c7 -15 14 -21 16 -15 5 16 -5 41 -17 41 -7 0 -6 -10 1 -26z"/>
<path d="M860 1019 c0 -5 5 -7 10 -4 6 3 10 8 10 11 0 2 -4 4 -10 4 -5 0 -10
-5 -10 -11z"/>
<path d="M898 1023 c7 -3 16 -2 19 1 4 3 -2 6 -13 5 -11 0 -14 -3 -6 -6z"/>
<path d="M770 995 c0 -8 5 -15 10 -15 6 0 10 7 10 15 0 8 -4 15 -10 15 -5 0
-10 -7 -10 -15z"/>
<path d="M857 946 c-2 -22 0 -45 4 -50 6 -6 9 -6 9 2 0 6 7 9 15 6 9 -4 15 0
15 9 0 8 6 18 13 20 10 4 10 6 0 6 -7 1 -13 9 -13 20 0 10 -9 21 -19 24 -16 4
-20 -2 -24 -37z"/>
<path d="M400 962 c0 -7 -3 -11 -7 -9 -5 3 -9 -6 -9 -19 -1 -13 1 -22 5 -19 4
2 7 -4 7 -13 -1 -9 4 -19 9 -22 14 -7 19 56 6 77 -6 11 -11 13 -11 5z"/>
<path d="M562 954 c-11 -12 -10 -15 3 -20 21 -8 29 1 18 19 -7 13 -10 13 -21
1z"/>
<path d="M698 936 c-4 -21 0 -29 21 -39 18 -9 26 -20 25 -37 -2 -38 -3 -38
-24 -33 -16 4 -20 0 -21 -23 -1 -29 -1 -29 -9 4 -4 18 -10 36 -14 39 -12 12
-18 -28 -8 -56 11 -31 2 -41 -35 -41 -8 0 -23 -10 -32 -22 -18 -21 -59 -20
-46 2 3 5 -4 11 -17 12 -13 0 -3 4 22 8 38 6 40 7 13 8 -17 1 -35 7 -38 12 -4
6 -12 5 -21 -5 -12 -12 -19 -12 -34 -3 -14 9 -16 14 -7 20 8 5 9 10 1 18 -8 8
-14 -1 -23 -30 -8 -29 -17 -40 -31 -40 -16 0 -20 7 -20 34 0 30 -3 33 -21 29
-13 -4 -17 -8 -9 -13 8 -5 7 -9 -4 -13 -8 -3 -18 -2 -21 3 -4 6 -16 3 -30 -7
-27 -20 -33 -38 -9 -29 8 3 12 2 9 -4 -3 -6 -1 -10 4 -10 18 0 12 -18 -6 -23
-10 -3 -2 -5 17 -6 27 -1 31 -4 20 -11 -8 -5 -10 -10 -4 -10 18 0 13 -34 -9
-57 -16 -18 -18 -25 -8 -37 11 -13 7 -18 -19 -34 -19 -12 -27 -23 -21 -26 18
-12 12 -26 -15 -36 -15 -6 -40 -20 -56 -32 l-30 -21 17 34 c11 23 11 28 2 17
-8 -10 -23 -18 -33 -19 -11 0 -14 -3 -6 -6 9 -3 10 -9 2 -17 -7 -10 -2 -13 22
-14 21 0 39 -9 52 -24 10 -13 27 -22 37 -20 13 2 17 -1 13 -11 -2 -7 2 -20 11
-27 8 -7 15 -22 15 -34 0 -11 7 -41 14 -66 12 -36 15 -40 15 -18 1 15 6 30 11
33 6 3 10 22 10 41 0 26 4 34 18 34 27 0 43 -39 38 -90 -3 -34 2 -56 19 -90
22 -42 24 -44 29 -20 3 14 7 36 8 50 2 14 7 24 13 22 5 -2 12 5 16 15 6 13 8
14 8 3 1 -8 11 -20 24 -25 12 -6 21 -16 20 -22 -1 -6 11 -13 27 -16 15 -4 37
-16 48 -27 19 -21 20 -21 48 -3 24 15 29 24 28 58 -1 40 -1 40 3 3 5 -43 26
-55 51 -30 13 13 29 17 56 14 26 -3 34 -7 25 -13 -9 -6 -10 -9 -2 -9 6 0 24
19 40 41 15 23 35 49 44 58 8 10 18 24 21 33 4 8 20 18 36 21 22 4 31 13 37
34 3 15 10 30 14 33 5 3 11 24 15 48 5 32 3 42 -8 42 -7 0 -16 10 -19 23 -6
21 -6 21 8 3 10 -13 15 -15 15 -6 0 9 6 8 21 -6 l22 -19 -13 25 c-10 21 -10
23 1 12 7 -6 19 -12 26 -12 21 0 15 36 -11 61 -13 13 -21 29 -18 38 3 9 1 12
-6 7 -8 -5 -12 3 -12 24 0 25 -4 31 -15 26 -11 -4 -15 2 -15 24 0 35 17 40 23
8 4 -20 4 -19 6 5 0 15 -3 27 -9 27 -15 0 -12 30 3 31 6 1 1 4 -12 8 -30 8
-38 28 -14 34 14 4 13 5 -4 6 -18 1 -23 -4 -23 -24 0 -16 6 -25 15 -25 12 0
14 -8 9 -42 -4 -24 -11 -44 -16 -46 -4 -2 -8 -14 -8 -27 0 -15 -7 -24 -22 -28
-13 -3 -34 -8 -48 -11 l-25 -7 25 12 25 12 -24 6 c-38 10 -38 31 0 31 l32 0
-7 61 c-3 34 -6 83 -7 108 -1 38 -2 42 -9 21 -7 -21 -8 -22 -10 -5 l-1 20 -9
-20 c-13 -29 -12 -35 5 -35 13 0 16 -11 14 -47 -1 -27 2 -55 5 -64 4 -10 2
-20 -5 -25 -8 -5 -10 -3 -4 7 6 11 5 12 -6 2 -24 -23 -29 -14 -31 60 -2 69 -2
70 -5 15 -2 -32 -8 -58 -13 -58 -6 0 -10 -6 -10 -14 0 -8 -5 -18 -12 -22 -7
-4 -8 -3 -4 4 4 7 4 17 0 24 -4 6 -6 36 -5 65 1 29 -1 53 -6 54 -4 0 -16 2
-25 4 -10 2 -18 -1 -18 -6 0 -5 5 -9 10 -9 18 0 10 -14 -22 -39 -26 -21 -29
-22 -21 -5 5 10 11 39 12 64 2 25 5 48 8 53 5 9 -42 93 -59 103 -6 4 -8 3 -5
-3 4 -6 -1 -17 -11 -24 -15 -12 -16 -12 -5 1 7 9 8 21 4 29 -6 9 -10 5 -13
-13z m40 -191 c-15 -23 -24 -29 -26 -19 -2 8 7 23 20 34 31 26 32 25 6 -15z
m-348 3 c0 -7 -7 -22 -15 -32 -14 -19 -15 -18 -15 12 0 22 5 32 15 32 8 0 15
-6 15 -12z m280 -22 c0 -23 -13 -25 -32 -4 -17 17 -17 18 7 18 15 0 25 -6 25
-14z m-240 -10 c0 -2 -7 -7 -16 -10 -8 -3 -12 -2 -9 4 6 10 25 14 25 6z m53
-13 c-7 -2 -19 -2 -25 0 -7 3 -2 5 12 5 14 0 19 -2 13 -5z m222 -13 c3 -5 1
-10 -4 -10 -6 0 -11 5 -11 10 0 6 2 10 4 10 3 0 8 -4 11 -10z m172 -76 c-3 -3
-12 -4 -19 -1 -8 3 -5 6 6 6 11 1 17 -2 13 -5z m-557 -94 c0 -5 -4 -10 -10
-10 -5 0 -10 5 -10 10 0 6 5 10 10 10 6 0 10 -4 10 -10z m550 -10 c0 -5 -7
-10 -16 -10 -8 0 -12 5 -9 10 3 6 10 10 16 10 5 0 9 -4 9 -10z m-484 -47 l7
-28 7 30 c5 20 8 4 8 -50 0 -76 0 -78 -13 -50 -8 17 -15 37 -16 45 -1 8 -5 -5
-9 -30 -6 -40 -7 -36 -8 33 -2 77 9 101 24 50z m94 12 c0 -9 -6 -12 -15 -9
-18 7 -21 -22 -2 -29 9 -4 9 -8 -1 -15 -8 -5 -12 -21 -10 -38 l4 -29 11 25
c12 25 12 25 12 -7 1 -29 -2 -33 -24 -33 -24 0 -25 2 -25 75 0 73 1 75 25 75
15 0 25 -6 25 -15z m90 5 c0 -5 -4 -10 -10 -10 -6 0 -10 -26 -10 -59 0 -33 -4
-63 -10 -66 -6 -4 -10 18 -10 59 0 52 -3 66 -15 66 -8 0 -15 5 -15 10 0 6 16
10 35 10 19 0 35 -4 35 -10z m37 -17 l11 -28 1 29 c1 36 11 29 21 -16 l8 -33
1 38 c1 20 6 37 11 37 13 0 13 -9 -1 -88 -11 -61 -21 -70 -32 -27 -4 18 -5 18
-6 -2 -2 -41 -19 -24 -26 25 -3 26 -9 57 -12 70 -7 31 11 28 24 -5z m131 -45
c-3 -66 -5 -73 -24 -76 -25 -4 -34 19 -34 89 0 52 4 59 37 59 23 0 24 -2 21
-72z m72 38 c0 -19 -4 -37 -9 -41 -6 -3 -6 -17 1 -36 14 -39 2 -50 -14 -13
l-12 29 -4 -28 c-7 -52 -22 -16 -22 54 l0 69 30 0 c28 0 30 -3 30 -34z m37 14
c-3 -11 -1 -20 3 -20 5 0 12 9 15 20 3 11 11 20 17 20 6 0 7 -7 2 -17 -10 -23
-10 -60 0 -103 11 -46 -9 -29 -22 20 l-10 35 -1 -37 c-1 -20 -5 -40 -11 -43
-6 -4 -10 22 -10 69 0 49 4 76 11 76 6 0 9 -9 6 -20z m173 -10 c6 -11 8 -20 6
-20 -3 0 -10 9 -16 20 -6 11 -8 20 -6 20 3 0 10 -9 16 -20z m-755 -10 c-3 -5
-11 -10 -16 -10 -6 0 -7 5 -4 10 3 6 11 10 16 10 6 0 7 -4 4 -10z m15 -30 c0
-5 -4 -10 -10 -10 -5 0 -10 5 -10 10 0 6 5 10 10 10 6 0 10 -4 10 -10z m60 0
c0 -5 -5 -10 -11 -10 -5 0 -7 5 -4 10 3 6 8 10 11 10 2 0 4 -4 4 -10z m585 0
c3 -5 1 -10 -4 -10 -6 0 -11 5 -11 10 0 6 2 10 4 10 3 0 8 -4 11 -10z m60 0
c3 -5 1 -10 -4 -10 -6 0 -11 5 -11 10 0 6 2 10 4 10 3 0 8 -4 11 -10z m-505
-105 c0 -8 -2 -15 -4 -15 -2 0 -6 7 -10 15 -3 8 -1 15 4 15 6 0 10 -7 10 -15z
m130 -15 c0 -34 -20 -42 -21 -7 -1 19 -2 18 -9 -7 -7 -21 -5 -32 6 -43 16 -16
19 -53 4 -53 -5 0 -17 16 -26 35 -13 29 -14 38 -4 50 10 12 10 19 2 27 -19 19
-14 28 18 28 27 0 30 -3 30 -30z m258 23 c-10 -2 -26 -2 -35 0 -10 3 -2 5 17
5 19 0 27 -2 18 -5z m-218 -147 c0 -14 -3 -17 -10 -10 -6 6 -13 44 -15 85 l-4
74 14 -65 c8 -36 14 -74 15 -84z m-122 115 c3 -8 -1 -12 -9 -9 -7 2 -15 10
-17 17 -3 8 1 12 9 9 7 -2 15 -10 17 -17z m145 -46 c7 -47 -7 -26 -17 25 -4
20 -3 30 3 25 4 -6 11 -28 14 -50z m37 22 c0 -5 -4 -5 -10 -2 -5 3 -10 14 -10
23 0 15 2 15 10 2 5 -8 10 -19 10 -23z m183 13 c-3 -11 -9 -17 -14 -14 -14 8
-10 34 5 34 9 0 12 -7 9 -20z m-416 -20 c-6 -16 -13 -28 -15 -26 -6 6 10 56
18 56 5 0 3 -13 -3 -30z m393 -15 c0 -7 -14 -18 -32 -24 -43 -15 -48 -5 -7 13
19 8 28 15 22 15 -7 1 -13 5 -13 11 0 5 7 7 15 4 8 -4 15 -12 15 -19z m-93
-27 c-3 -8 -6 -5 -6 6 -1 11 2 17 5 13 3 -3 4 -12 1 -19z m103 -17 c0 -15 -19
-23 -38 -16 -14 5 -14 7 -2 15 19 12 40 13 40 1z m-67 -8 c-7 -2 -19 -2 -25 0
-7 3 -2 5 12 5 14 0 19 -2 13 -5z"/>
<path d="M700 420 c0 -27 5 -50 10 -50 6 0 10 23 10 50 0 28 -4 50 -10 50 -5
0 -10 -22 -10 -50z"/>
<path d="M770 444 c0 -14 4 -23 10 -19 6 3 10 15 10 26 0 10 -4 19 -10 19 -5
0 -10 -12 -10 -26z"/>
<path d="M781 944 c0 -11 3 -14 6 -6 3 7 2 16 -1 19 -3 4 -6 -2 -5 -13z"/>
<path d="M450 941 c0 -5 16 -9 35 -9 19 0 35 4 35 9 0 5 -16 9 -35 9 -19 0
-35 -4 -35 -9z"/>
<path d="M595 900 c-13 -5 -14 -9 -5 -9 8 0 24 4 35 9 13 5 14 9 5 9 -8 0 -24
-4 -35 -9z"/>
<path d="M811 894 c0 -11 3 -14 6 -6 3 7 2 16 -1 19 -3 4 -6 -2 -5 -13z"/>
<path d="M540 879 c0 -5 9 -9 20 -9 11 0 20 2 20 4 0 2 -9 6 -20 9 -11 3 -20
1 -20 -4z"/>
<path d="M951 874 c0 -11 3 -14 6 -6 3 7 2 16 -1 19 -3 4 -6 -2 -5 -13z"/>
<path d="M458 873 c7 -3 16 -2 19 1 4 3 -2 6 -13 5 -11 0 -14 -3 -6 -6z"/>
<path d="M497 860 c-96 -5 -117 -13 -117 -45 0 -5 4 -5 8 2 6 9 25 9 81 1 62
-9 82 -8 127 6 53 17 78 44 30 32 -13 -3 -26 -3 -28 2 -2 4 -47 5 -101 2z m80
-16 c-3 -3 -12 -4 -19 -1 -8 3 -5 6 6 6 11 1 17 -2 13 -5z"/>
<path d="M835 853 c-5 -12 -9 -14 -12 -5 -3 6 -9 10 -14 6 -18 -10 -9 -24 16
-24 18 0 25 5 25 20 0 25 -6 26 -15 3z"/>
<path d="M615 810 c-3 -5 -1 -10 4 -10 6 0 11 5 11 10 0 6 -2 10 -4 10 -3 0
-8 -4 -11 -10z"/>
<path d="M810 810 c-12 -8 -9 -10 13 -10 15 0 27 5 27 10 0 13 -20 13 -40 0z"/>
<path d="M420 795 c0 -8 5 -15 10 -15 6 0 10 7 10 15 0 8 -4 15 -10 15 -5 0
-10 -7 -10 -15z"/>
<path d="M872 755 c0 -16 2 -22 5 -12 2 9 2 23 0 30 -3 6 -5 -1 -5 -18z"/>
<path d="M1058 773 c7 -3 16 -2 19 1 4 3 -2 6 -13 5 -11 0 -14 -3 -6 -6z"/>
<path d="M921 744 c0 -11 3 -14 6 -6 3 7 2 16 -1 19 -3 4 -6 -2 -5 -13z"/>
<path d="M988 693 c7 -3 16 -2 19 1 4 3 -2 6 -13 5 -11 0 -14 -3 -6 -6z"/>
<path d="M978 653 c6 -2 18 -2 25 0 6 3 1 5 -13 5 -14 0 -19 -2 -12 -5z"/>
<path d="M280 600 c0 -5 5 -10 10 -10 6 0 10 5 10 10 0 6 -4 10 -10 10 -5 0
-10 -4 -10 -10z"/>
<path d="M250 510 c0 -5 5 -10 11 -10 5 0 7 5 4 10 -3 6 -8 10 -11 10 -2 0 -4
-4 -4 -10z"/>
<path d="M395 300 c-3 -5 -1 -10 4 -10 6 0 11 5 11 10 0 6 -2 10 -4 10 -3 0
-8 -4 -11 -10z"/>
<path d="M931 199 c-6 -18 -11 -39 -11 -48 1 -9 8 4 16 27 9 24 13 46 11 48
-3 3 -10 -9 -16 -27z"/>
<path d="M571 100 c0 -19 6 -46 14 -60 l14 -25 0 30 c0 17 -6 44 -14 60 l-13
30 -1 -35z"/>
</g>
</svg>
